<?xml version="1.0" encoding="UTF-8"?>
<svg version="1.1" xmlns="http://www.w3.org/2000/svg" width="300" height="300">
<path d="M0 0 C99 0 198 0 300 0 C300 99 300 198 300 300 C201 300 102 300 0 300 C0 201 0 102 0 0 Z " fill="#FEFEFE" transform="translate(0,0)"/>
<path d="M0 0 C3.63 0 7.26 0 11 0 C11 12.21 11 24.42 11 37 C13.64 37 16.28 37 19 37 C19 43.27 19 49.54 19 56 C15.37 56 11.74 56 8 56 C8 49.73 8 43.46 8 37 C6.02 37 4.04 37 2 37 C2 41.29 2 45.58 2 50 C-1.63 50 -5.26 50 -9 50 C-9 45.71 -9 41.42 -9 37 C-10.65 37 -12.3 37 -14 37 C-14 44.26 -14 51.52 -14 59 C-17.63 59 -21.26 59 -25 59 C-25 51.74 -25 44.48 -25 37 C-26.98 37 -28.96 37 -31 37 C-31 42.61 -31 48.22 -31 54 C-34.63 54 -38.26 54 -42 54 C-42 48.39 -42 42.78 -42 37 C-43.65 37 -45.3 37 -47 37 C-47 45.25 -47 53.5 -47 62 C-50.63 62 -54.26 62 -58 62 C-58 54.08 -58 46.16 -58 38 C-60.97 38 -63.94 38 -67 38 C-67 28.43 -67 18.86 -67 9 C-63.37 9 -59.74 9 -56 9 C-56 18.24 -56 27.48 -56 37 C-54.02 37 -52.04 37 -50 37 C-50 30.73 -50 24.46 -50 18 C-46.37 18 -42.74 18 -39 18 C-39 24.27 -39 30.54 -39 37 C-37.35 37 -35.7 37 -34 37 C-34 26.11 -34 15.22 -34 4 C-30.04 4 -26.08 4 -22 4 C-22 14.89 -22 25.78 -22 37 C-20.35 37 -18.7 37 -17 37 C-17 28.75 -17 20.5 -17 12 C-13.37 12 -9.74 12 -6 12 C-6 20.25 -6 28.5 -6 37 C-4.02 37 -2.04 37 0 37 C0 24.79 0 12.58 0 0 Z " fill="#15EFC1" transform="translate(173,96)"/>
<path d="M0 0 C3.63 0 7.26 0 11 0 C11 9.24 11 18.48 11 28 C12.98 28 14.96 28 17 28 C17 21.73 17 15.46 17 9 C20.63 9 24.26 9 28 9 C28 15.27 28 21.54 28 28 C29.98 28 31.96 28 34 28 C34 23.71 34 19.42 34 15 C34.66 15 35.32 15 36 15 C36.495 15.99 36.495 15.99 37 17 C37.66 16.34 38.32 15.68 39 15 C39 17.64 39 20.28 39 23 C39.66 23 40.32 23 41 23 C41.33 20.36 41.66 17.72 42 15 C42.66 15 43.32 15 44 15 C44 19.62 44 24.24 44 29 C46.64 29 49.28 29 52 29 C52 35.93 52 42.86 52 50 C48.7 50 45.4 50 42 50 C42 42.74 42 35.48 42 28 C40.02 28 38.04 28 36 28 C36 33.61 36 39.22 36 45 C32.37 45 28.74 45 25 45 C25 39.39 25 33.78 25 28 C23.35 28 21.7 28 20 28 C20 36.25 20 44.5 20 53 C16.37 53 12.74 53 9 53 C9 45.08 9 37.16 9 29 C6.03 29 3.06 29 0 29 C0 19.43 0 9.86 0 0 Z " fill="#298FD1" transform="translate(106,105)"/>
<path d="M0 0 C2.31 0 4.62 0 7 0 C10.54014439 6.95960203 13.99213508 13.96270296 17.375 21 C17.73271484 21.72952881 18.09042969 22.45905762 18.45898438 23.21069336 C20.15981664 26.77854545 21 28.98174464 21 33 C19.02 33 17.04 33 15 33 C12 27.25 12 27.25 12 25 C6.39 25 0.78 25 -5 25 C-5.66 27.31 -6.32 29.62 -7 32 C-8 33 -8 33 -11.0625 33.0625 C-12.031875 33.041875 -13.00125 33.02125 -14 33 C-12.45315619 27.93760209 -10.71253967 23.23117929 -8.25 18.52734375 C-5.2541621 12.47013399 -2.67951525 6.20202405 0 0 Z " fill="#0F0F0F" transform="translate(87,171)"/>
<path d="M0 0 C1.92578125 1.09375 1.92578125 1.09375 4.73828125 3.09375 C4.73828125 4.08375 4.73828125 5.07375 4.73828125 6.09375 C2.75828125 7.08375 2.75828125 7.08375 0.73828125 8.09375 C-0.25171875 7.43375 -1.24171875 6.77375 -2.26171875 6.09375 C-5.65279246 5.54772966 -8.87046051 5.54747076 -12.26171875 6.09375 C-15.08596163 8.28397918 -16.67680478 9.92392207 -18.26171875 13.09375 C-18.70191495 17.93590825 -17.87357735 20.98940078 -15.26171875 25.09375 C-11.91300889 27.72487918 -8.38183811 27.45516398 -4.26171875 27.09375 C-3.37484375 26.5575 -2.48796875 26.02125 -1.57421875 25.46875 C-0.81109375 25.015 -0.04796875 24.56125 0.73828125 24.09375 C3.05078125 24.90625 3.05078125 24.90625 4.73828125 26.09375 C4.55078125 27.90625 4.55078125 27.90625 3.73828125 30.09375 C-1.65245319 34.03350244 -6.81458451 34.08247401 -13.26171875 33.09375 C-17.57590233 31.37437465 -20.9457011 29.14370057 -23.48046875 25.1953125 C-25.3842825 20.73545251 -26.23455951 15.87456745 -25.26171875 11.09375 C-23.21753856 6.11503558 -20.24030751 2.11166241 -15.34765625 -0.28125 C-10.32367235 -1.78656353 -4.90239076 -1.9643431 0 0 Z " fill="#0A0A0A" transform="translate(63.26171875,170.90625)"/>
<path d="M0 0 C2.64998043 1.39575396 3.96652983 2.74058869 6 5 C5.01 6.32 4.02 7.64 3 9 C2.17822266 8.51853516 2.17822266 8.51853516 1.33984375 8.02734375 C-2.95597068 6.14120152 -7.41246801 6.36887504 -12 7 C-15.39723654 8.64711687 -15.39723654 8.64711687 -17 12 C-17.67853216 15.47819006 -17.72987755 18.52737948 -17 22 C-14.80977082 24.82424288 -13.16982793 26.41508603 -10 28 C-7.91761534 27.97663986 -7.91761534 27.97663986 -5.625 27.6875 C-4.85414063 27.60886719 -4.08328125 27.53023437 -3.2890625 27.44921875 C-0.90239122 26.98084469 0.88597746 26.18250119 3 25 C4.5 26.375 4.5 26.375 6 28 C6 28.66 6 29.32 6 30 C0.08689742 34.20487295 -4.80652429 35.002539 -12 34 C-16.71998102 32.67053868 -19.36050076 30.76739909 -22.5 27 C-24.93146853 21.97424138 -24.74700626 16.42522727 -24 11 C-21.84062362 6.52129344 -19.07047061 3.81801812 -15 1 C-10.08912806 -0.63695731 -5.11841667 -0.63390141 0 0 Z " fill="#0D0D0D" transform="translate(169,170)"/>
<path d="M0 0 C7.92 0 15.84 0 24 0 C24 1.65 24 3.3 24 5 C18.06 5 12.12 5 6 5 C6 8.3 6 11.6 6 15 C11.28 15 16.56 15 22 15 C22 16.65 22 18.3 22 20 C16.72 20 11.44 20 6 20 C6 24.29 6 28.58 6 33 C4.02 33 2.04 33 0 33 C0 22.11 0 11.22 0 0 Z " fill="#070707" transform="translate(202,171)"/>
<path d="M0 0 C1.4540625 0.0309375 1.4540625 0.0309375 2.9375 0.0625 C1.86993436 3.23469503 0.47794062 5.85699635 -1.41015625 8.59375 C-7.3262189 17.19184763 -10.68762721 23.32502089 -10.0625 34.0625 C-12.0425 34.0625 -14.0225 34.0625 -16.0625 34.0625 C-16.00707031 33.33289063 -15.95164063 32.60328125 -15.89453125 31.8515625 C-15.82635563 20.80711209 -20.97738132 13.59329747 -27.06860352 4.7355957 C-28.0625 3.0625 -28.0625 3.0625 -28.0625 1.0625 C-25.3359375 0.6640625 -25.3359375 0.6640625 -22.0625 1.0625 C-20.23205445 3.23577147 -19.01483009 4.98942815 -17.6875 7.4375 C-17.33300781 8.04078125 -16.97851562 8.6440625 -16.61328125 9.265625 C-14.0625 13.69748431 -14.0625 13.69748431 -14.0625 16.0625 C-13.4025 16.0625 -12.7425 16.0625 -12.0625 16.0625 C-11.79566406 15.34578125 -11.52882812 14.6290625 -11.25390625 13.890625 C-10.04369507 11.01786141 -8.62083748 8.47274431 -7 5.8125 C-6.47277344 4.94109375 -5.94554687 4.0696875 -5.40234375 3.171875 C-3.432106 0.07004298 -3.432106 0.07004298 0 0 Z " fill="#0B0B0B" transform="translate(259.0625,169.9375)"/>
<path d="M0 0 C3.63 0 7.26 0 11 0 C11 9.24 11 18.48 11 28 C9 29 9 29 0 29 C0 19.43 0 9.86 0 0 Z " fill="#0AD4C4" transform="translate(106,105)"/>
<path d="M0 0 C0.66 0 1.32 0 2 0 C2.33 0.66 2.66 1.32 3 2 C3.66 1.34 4.32 0.68 5 0 C5 2.64 5 5.28 5 8 C5.66 8 6.32 8 7 8 C7.33 5.36 7.66 2.72 8 0 C8.66 0 9.32 0 10 0 C10 4.62 10 9.24 10 14 C12.64 14 15.28 14 18 14 C18 20.93 18 27.86 18 35 C14.7 35 11.4 35 8 35 C8 27.74 8 20.48 8 13 C5.36 13 2.72 13 0 13 C0 8.71 0 4.42 0 0 Z " fill="#0EC5CB" transform="translate(140,120)"/>
<path d="M0 0 C1.98 0 3.96 0 6 0 C6 9.57 6 19.14 6 29 C11.61 29 17.22 29 23 29 C23 30.65 23 32.3 23 34 C15.41 34 7.82 34 0 34 C0 22.78 0 11.56 0 0 Z " fill="#0C0C0C" transform="translate(116,170)"/>
<path d="M0 0 C3.3 0.33 6.6 0.66 10 1 C10 8.92 10 16.84 10 25 C6.7 25 3.4 25 0 25 C0 16.75 0 8.5 0 0 Z " fill="#167DDC" transform="translate(115,133)"/>
<path d="M0 0 C3.3 0 6.6 0 10 0 C10 6.27 10 12.54 10 19 C9.34 19 8.68 19 8 19 C7.67 21.64 7.34 24.28 7 27 C6.34 27 5.68 27 5 27 C4.87625 26.195625 4.7525 25.39125 4.625 24.5625 C4.41875 23.716875 4.2125 22.87125 4 22 C3.34 21.67 2.68 21.34 2 21 C2 20.34 2 19.68 2 19 C1.34 19 0.68 19 0 19 C0 12.73 0 6.46 0 0 Z " fill="#05EBBC" transform="translate(140,101)"/>
<path d="M0 0 C3.63 0 7.26 0 11 0 C11 6.6 11 13.2 11 20 C5 21 5 21 2 19 C1.34 19.33 0.68 19.66 0 20 C0 13.4 0 6.8 0 0 Z " fill="#07EDBC" transform="translate(156,108)"/>
<path d="M0 0 C2.50715891 2.50715891 3.6820514 3.95449479 5.1875 7 C5.53167969 7.680625 5.87585938 8.36125 6.23046875 9.0625 C7 11 7 11 7 14 C6.14535156 14.04898438 5.29070312 14.09796875 4.41015625 14.1484375 C3.30542969 14.22320312 2.20070313 14.29796875 1.0625 14.375 C-0.03964844 14.44460937 -1.14179687 14.51421875 -2.27734375 14.5859375 C-3.17582031 14.72257813 -4.07429688 14.85921875 -5 15 C-5.33 15.66 -5.66 16.32 -6 17 C-5.01 17.33 -4.02 17.66 -3 18 C-4.65 18 -6.3 18 -8 18 C-8.309375 19.134375 -8.61875 20.26875 -8.9375 21.4375 C-10 25 -10 25 -11 26 C-12.99958364 26.04080783 -15.00045254 26.04254356 -17 26 C-15.10463724 19.48180123 -12.4821006 13.82185199 -9 8 C-7.68 8.99 -6.36 9.98 -5 11 C-3.35 7.37 -1.7 3.74 0 0 Z " fill="#161616" transform="translate(90,178)"/>
<path d="M0 0 C1.98 0 3.96 0 6 0 C6 10.89 6 21.78 6 33 C4.02 33 2.04 33 0 33 C0 22.11 0 11.22 0 0 Z " fill="#040404" transform="translate(184,171)"/>
<path d="M0 0 C3.96 0 7.92 0 12 0 C12 10.89 12 21.78 12 33 C13.65 33 15.3 33 17 33 C17.33 30.36 17.66 27.72 18 25 C18.61875 25.495 19.2375 25.99 19.875 26.5 C21.83880904 28.19222773 21.83880904 28.19222773 24 28 C24.66 27.01 25.32 26.02 26 25 C26 25.99 26 26.98 26 28 C26.66 28 27.32 28 28 28 C28 29.65 28 31.3 28 33 C29.98 33 31.96 33 34 33 C34 33.33 34 33.66 34 34 C30.535 34.495 30.535 34.495 27 35 C26.67 38.63 26.34 42.26 26 46 C25.67 46 25.34 46 25 46 C25 41.71 25 37.42 25 33 C23.35 33 21.7 33 20 33 C20 40.26 20 47.52 20 55 C19.67 55 19.34 55 19 55 C19 48.07 19 41.14 19 34 C16.36 34 13.72 34 11 34 C11 23.11 11 12.22 11 1 C7.7 1 4.4 1 1 1 C1 11.56 1 22.12 1 33 C0.67 33 0.34 33 0 33 C0 22.11 0 11.22 0 0 Z " fill="#4CD3D0" transform="translate(139,100)"/>
<path d="M0 0 C3.63 0 7.26 0 11 0 C11.02714735 2.22909871 11.04646254 4.45829367 11.0625 6.6875 C11.07410156 7.92886719 11.08570313 9.17023438 11.09765625 10.44921875 C11.01478673 13.46235454 10.70839449 16.08275339 10 19 C8.02 18.67 6.04 18.34 4 18 C4 17.34 4 16.68 4 16 C3.01 16 2.02 16 1 16 C-0.50156874 12.99686252 -0.09281204 10.20932478 -0.0625 6.875 C-0.05347656 5.59367187 -0.04445313 4.31234375 -0.03515625 2.9921875 C-0.02355469 2.00476563 -0.01195313 1.01734375 0 0 Z " fill="#10DCC2" transform="translate(123,114)"/>
<path d="M0 0 C0 5.61 0 11.22 0 17 C-3.63 17 -7.26 17 -11 17 C-11.17925387 6.42402184 -11.17925387 6.42402184 -8.875 1.6875 C-7 0 -7 0 0 0 Z " fill="#0EAFD4" transform="translate(192,135)"/>
<path d="M0 0 C2.64998043 1.39575396 3.96652983 2.74058869 6 5 C5.01 6.32 4.02 7.64 3 9 C2.45214844 8.67644531 1.90429688 8.35289062 1.33984375 8.01953125 C-2.90915869 6.16812952 -7.45346069 6.54061713 -12 7 C-14.94455734 8.27895058 -14.94455734 8.27895058 -17 10 C-17.99 10.33 -18.98 10.66 -20 11 C-20.66 9.68 -21.32 8.36 -22 7 C-20.90081184 6.01524786 -19.7954398 5.03739527 -18.6875 4.0625 C-18.07261719 3.51722656 -17.45773438 2.97195312 -16.82421875 2.41015625 C-12.13882079 -1.21174667 -5.61255733 -0.69509933 0 0 Z " fill="#171717" transform="translate(169,170)"/>
<path d="M0 0 C1.65 0 3.3 0 5 0 C5 4.29 5 8.58 5 13 C8.3 13 11.6 13 15 13 C15 13.33 15 13.66 15 14 C13.02 14.33 11.04 14.66 9 15 C9 15.99 9 16.98 9 18 C6.69 18 4.38 18 2 18 C1.67 19.98 1.34 21.96 1 24 C0.34 24 -0.32 24 -1 24 C-1 24.99 -1 25.98 -1 27 C-1.66 27 -2.32 27 -3 27 C-3 26.01 -3 25.02 -3 24 C-3.92232422 24.34224609 -3.92232422 24.34224609 -4.86328125 24.69140625 C-5.67152344 24.97886719 -6.47976562 25.26632813 -7.3125 25.5625 C-8.51326172 25.99755859 -8.51326172 25.99755859 -9.73828125 26.44140625 C-12 27 -12 27 -15 26 C-15 25.01 -15 24.02 -15 23 C-10.05 23 -5.1 23 0 23 C0 15.41 0 7.82 0 0 Z " fill="#F5FAF5" transform="translate(159,133)"/>
<path d="M0 0 C1.32 0 2.64 0 4 0 C4.024759 4.48404564 4.04288799 8.96805481 4.05493164 13.45214844 C4.05995365 14.97689507 4.0667725 16.50163691 4.07543945 18.02636719 C4.08759849 20.22071519 4.09324968 22.4149994 4.09765625 24.609375 C4.10289307 25.92905273 4.10812988 27.24873047 4.11352539 28.60839844 C4.02311329 31.30948418 3.81881355 33.4500616 3 36 C2.34 36 1.68 36 1 36 C-0.53297297 32.93405406 -0.12131455 29.72888147 -0.09765625 26.3671875 C-0.0962413 25.61535187 -0.09482635 24.86351624 -0.09336853 24.08889771 C-0.08776465 21.6842249 -0.07521157 19.27964473 -0.0625 16.875 C-0.0574855 15.24609509 -0.0529225 13.61718873 -0.04882812 11.98828125 C-0.03779397 7.99215173 -0.02052679 3.99609158 0 0 Z " fill="#03ECBE" transform="translate(176,96)"/>
<path d="M0 0 C1.92578125 1.09375 1.92578125 1.09375 4.73828125 3.09375 C4.73828125 4.08375 4.73828125 5.07375 4.73828125 6.09375 C2.75828125 7.08375 2.75828125 7.08375 0.73828125 8.09375 C-0.25171875 7.43375 -1.24171875 6.77375 -2.26171875 6.09375 C-4.67459221 5.81451033 -4.67459221 5.81451033 -7.26171875 5.90625 C-8.12796875 5.91269531 -8.99421875 5.91914063 -9.88671875 5.92578125 C-12.4109934 6.00544563 -12.4109934 6.00544563 -15.26171875 7.09375 C-17.94921875 5.15625 -17.94921875 5.15625 -20.26171875 3.09375 C-14.07846133 -1.30323305 -7.31388693 -2.93060754 0 0 Z " fill="#0B0B0B" transform="translate(63.26171875,170.90625)"/>
<path d="M0 0 C0.33 0 0.66 0 1 0 C1 4.95 1 9.9 1 15 C1.66 15 2.32 15 3 15 C3.433125 15.9590625 3.433125 15.9590625 3.875 16.9375 C4.82823451 19.15206079 4.82823451 19.15206079 7 20 C7 18.35 7 16.7 7 15 C7.66 15 8.32 15 9 15 C9 17.64 9 20.28 9 23 C9.66 23 10.32 23 11 23 C11 24.65 11 26.3 11 28 C9 29 9 29 0 29 C0 19.43 0 9.86 0 0 Z " fill="#3AC3D5" transform="translate(106,105)"/>
<path d="M0 0 C1.98 0 3.96 0 6 0 C6 7.26 6 14.52 6 22 C4.68 22 3.36 22 2 22 C-0.35582065 17.37183267 -0.23521469 13.24465865 -0.125 8.1875 C-0.11597656 7.39923828 -0.10695312 6.61097656 -0.09765625 5.79882812 C-0.07422504 3.86575334 -0.03835838 1.9328362 0 0 Z " fill="#E2F3F8" transform="translate(142,133)"/>
<path d="M0 0 C0 4.29 0 8.58 0 13 C-3.3 13 -6.6 13 -10 13 C-10.02687279 11.18757948 -10.04633715 9.37504767 -10.0625 7.5625 C-10.07410156 6.55316406 -10.08570313 5.54382813 -10.09765625 4.50390625 C-10 2 -10 2 -9 1 C-2.88888889 0 -2.88888889 0 0 0 Z " fill="#0CBBCA" transform="translate(175,133)"/>
<path d="M0 0 C0.33 1.32 0.66 2.64 1 4 C2.98 4 4.96 4 7 4 C7 7.63 7 11.26 7 15 C3.7 15 0.4 15 -3 15 C-3 11.37 -3 7.74 -3 4 C-2.01 4 -1.02 4 0 4 C0 2.68 0 1.36 0 0 Z " fill="#127EEA" transform="translate(151,140)"/>
<path d="M0 0 C0.99 0 1.98 0 3 0 C3 12.21 3 24.42 3 37 C2.01 36.67 1.02 36.34 0 36 C0 24.12 0 12.24 0 0 Z " fill="#DFFAF4" transform="translate(170,96)"/>
<path d="M0 0 C3.3 0.33 6.6 0.66 10 1 C10.26785714 11.17857143 10.26785714 11.17857143 8 15 C8 13.68 8 12.36 8 11 C5.36 11 2.72 11 0 11 C0 7.37 0 3.74 0 0 Z " fill="#149CD3" transform="translate(148,133)"/>
<path d="M0 0 C0.66 0 1.32 0 2 0 C2 1.65 2 3.3 2 5 C2.66 5 3.32 5 4 5 C4 4.34 4 3.68 4 3 C4.66 3 5.32 3 6 3 C6.33 4.65 6.66 6.3 7 8 C7.99 8 8.98 8 10 8 C10 9.98 10 11.96 10 14 C6.7 14 3.4 14 0 14 C0 9.38 0 4.76 0 0 Z " fill="#245AE9" transform="translate(115,144)"/>
<path d="M0 0 C3.3 0 6.6 0 10 0 C9.67 2.31 9.34 4.62 9 7 C8.01 7 7.02 7 6 7 C5.10869587 9.6739124 4.52268466 12.23723823 4 15 C3.34 13.68 2.68 12.36 2 11 C1.34 12.32 0.68 13.64 0 15 C0 10.05 0 5.1 0 0 Z " fill="#04E5BF" transform="translate(107,105)"/>
<path d="M0 0 C1.4540625 0.0309375 1.4540625 0.0309375 2.9375 0.0625 C1.32318496 4.75868922 -0.89079751 9.22534494 -4.0625 13.0625 C-7.25 14.5 -7.25 14.5 -10.0625 15.0625 C-11.0525 15.5575 -11.0525 15.5575 -12.0625 16.0625 C-10.69748381 12.39607971 -9.03453048 9.15172939 -7 5.8125 C-6.47277344 4.94109375 -5.94554687 4.0696875 -5.40234375 3.171875 C-3.432106 0.07004298 -3.432106 0.07004298 0 0 Z " fill="#101010" transform="translate(259.0625,169.9375)"/>
<path d="M0 0 C3.32532111 2.69192661 4.52454943 6.06546515 6 10 C6 10.99 6 11.98 6 13 C2.37 13 -1.26 13 -5 13 C-2.05357143 3.89285714 -2.05357143 3.89285714 0 0 Z " fill="#F3F3F3" transform="translate(90,178)"/>
<path d="M0 0 C1.65 0 3.3 0 5 0 C5 5.61 5 11.22 5 17 C8.63 17 12.26 17 16 17 C15.67 17.66 15.34 18.32 15 19 C10.71 18.67 6.42 18.34 2 18 C2 17.01 2 16.02 2 15 C2.66 15 3.32 15 4 15 C4 14.01 4 13.02 4 12 C3.34 12 2.68 12 2 12 C1.34 8.04 0.68 4.08 0 0 Z " fill="#EBF8FD" transform="translate(126,133)"/>
<path d="M0 0 C0.33 0 0.66 0 1 0 C1 3.3 1 6.6 1 10 C1.99 10 2.98 10 4 10 C4 11.65 4 13.3 4 15 C1.03 14.505 1.03 14.505 -2 14 C-2 13.34 -2 12.68 -2 12 C-2.99 12 -3.98 12 -5 12 C-5.36871508 5.48603352 -5.36871508 5.48603352 -3.625 3.1875 C-3.08875 2.795625 -2.5525 2.40375 -2 2 C-1.34 1.34 -0.68 0.68 0 0 Z " fill="#12B8CA" transform="translate(129,118)"/>
<path d="M0 0 C0.33 0.66 0.66 1.32 1 2 C1.99 2 2.98 2 4 2 C4 2.66 4 3.32 4 4 C5.65 4 7.3 4 9 4 C9.66 2.68 10.32 1.36 11 0 C11 1.65 11 3.3 11 5 C12.98 5 14.96 5 17 5 C17 5.33 17 5.66 17 6 C15.60427948 6.02736707 14.20839779 6.04655989 12.8125 6.0625 C12.03519531 6.07410156 11.25789063 6.08570313 10.45703125 6.09765625 C8 6 8 6 3 5 C3 13.25 3 21.5 3 30 C2.67 30 2.34 30 2 30 C2 22.08 2 14.16 2 6 C-0.64 6 -3.28 6 -6 6 C-6 5.67 -6 5.34 -6 5 C-4.02 5 -2.04 5 0 5 C0 3.35 0 1.7 0 0 Z " fill="#49A2CD" transform="translate(123,128)"/>
<path d="M0 0 C0.33 0 0.66 0 1 0 C1 5.94 1 11.88 1 18 C0.34 18 -0.32 18 -1 18 C-0.67 21.63 -0.34 25.26 0 29 C0.66 29 1.32 29 2 29 C2 25.37 2 21.74 2 18 C2.33 18 2.66 18 3 18 C3 22.29 3 26.58 3 31 C1.35 31 -0.3 31 -2 31 C-2.02895976 27.87501937 -2.04678483 24.7500731 -2.0625 21.625 C-2.07087891 20.73554687 -2.07925781 19.84609375 -2.08789062 18.9296875 C-2.09111328 18.07890625 -2.09433594 17.228125 -2.09765625 16.3515625 C-2.10289307 15.56604004 -2.10812988 14.78051758 -2.11352539 13.97119141 C-2 12 -2 12 -1 10 C-0.77377919 8.29636178 -0.59111527 6.58671299 -0.4375 4.875 C-0.35371094 3.96492188 -0.26992187 3.05484375 -0.18359375 2.1171875 C-0.12300781 1.41851562 -0.06242188 0.71984375 0 0 Z " fill="#EFFCFD" transform="translate(136,102)"/>
<path d="M0 0 C0.33 0 0.66 0 1 0 C1.33 11.88 1.66 23.76 2 36 C2.66 36 3.32 36 4 36 C4 34.68 4 33.36 4 32 C4.66 32 5.32 32 6 32 C6 33.65 6 35.3 6 37 C3.36 37 0.72 37 -2 37 C-2 35.35 -2 33.7 -2 32 C-1.34 32 -0.68 32 0 32 C0 21.44 0 10.88 0 0 Z " fill="#0FE4C4" transform="translate(175,96)"/>
<path d="M0 0 C0 0.33 0 0.66 0 1 C-4.455 1.495 -4.455 1.495 -9 2 C-7.04783565 3.95216435 -5.46800047 4.84826645 -3 6 C-6.32201132 6.9546751 -9.54546347 7.75739133 -13 8 C-16.125 6.125 -16.125 6.125 -18 4 C-11.97181491 -0.28670939 -7.28695785 -0.474377 0 0 Z " fill="#262626" transform="translate(61,170)"/>
<path d="M0 0 C2.29633824 3.44450737 2.54016485 5.93812283 3 10 C-0.3 10 -3.6 10 -7 10 C-7 8.02 -7 6.04 -7 4 C-5.68 3.34 -4.36 2.68 -3 2 C-3 3.98 -3 5.96 -3 8 C-2.34 8 -1.68 8 -1 8 C-1.020625 6.865625 -1.04125 5.73125 -1.0625 4.5625 C-1 1 -1 1 0 0 Z " fill="#15A4D4" transform="translate(172,136)"/>
<path d="M0 0 C1.98 0 3.96 0 6 0 C5.67 3.63 5.34 7.26 5 11 C4.67 11 4.34 11 4 11 C3.67 13.64 3.34 16.28 3 19 C2.67 19 2.34 19 2 19 C1.67 17.02 1.34 15.04 1 13 C0.67 13 0.34 13 0 13 C0 8.71 0 4.42 0 0 Z " fill="#CEF3F8" transform="translate(175,133)"/>
<path d="M0 0 C0.66 0 1.32 0 2 0 C2.33 1.32 2.66 2.64 3 4 C3.66 3.67 4.32 3.34 5 3 C5 3.99 5 4.98 5 6 C5.99 6.33 6.98 6.66 8 7 C8 7.99 8 8.98 8 10 C5.03 10 2.06 10 -1 10 C-0.67 6.7 -0.34 3.4 0 0 Z " fill="#177EE8" transform="translate(133,139)"/>
<path d="M0 0 C3.3 0.33 6.6 0.66 10 1 C10 2.65 10 4.3 10 6 C6.7 6 3.4 6 0 6 C0 4.02 0 2.04 0 0 Z " fill="#0B5C8A" transform="translate(115,133)"/>
<path d="M0 0 C0.33 0 0.66 0 1 0 C1 8.91 1 17.82 1 27 C0.01 27.33 -0.98 27.66 -2 28 C-2 24.04 -2 20.08 -2 16 C-1.34 16 -0.68 16 0 16 C0 10.72 0 5.44 0 0 Z " fill="#FDF4F6" transform="translate(137,104)"/>
<path d="M0 0 C2.475 0.99 2.475 0.99 5 2 C3.125 6.75 3.125 6.75 2 9 C-0.16874252 8.49396008 -1.99967627 8.00016187 -4 7 C-2.92598892 4.08482708 -2.22189824 2.22189824 0 0 Z " fill="#101010" transform="translate(43,175)"/>
<path d="M0 0 C2.60018816 3.90028225 2.15085514 7.47434569 2 12 C1.34 12 0.68 12 0 12 C-0.33 11.01 -0.66 10.02 -1 9 C-1.33 10.65 -1.66 12.3 -2 14 C0.97 14 3.94 14 7 14 C7 14.33 7 14.66 7 15 C3.7 15 0.4 15 -3 15 C-3 11.37 -3 7.74 -3 4 C-2.01 4 -1.02 4 0 4 C0 2.68 0 1.36 0 0 Z " fill="#247EDA" transform="translate(151,140)"/>
<path d="M0 0 C0 1.65 0 3.3 0 5 C-3.63 5 -7.26 5 -11 5 C-11 3.68 -11 2.36 -11 1 C-9.54182203 0.83197949 -8.0834516 0.66562857 -6.625 0.5 C-5.81289062 0.4071875 -5.00078125 0.314375 -4.1640625 0.21875 C-2 0 -2 0 0 0 Z " fill="#0F6E8F" transform="translate(142,133)"/>
<path d="M0 0 C1.65 0 3.3 0 5 0 C5.28571429 8.57142857 5.28571429 8.57142857 3 12 C3 10.68 3 9.36 3 8 C2.01 8 1.02 8 0 8 C0 5.36 0 2.72 0 0 Z " fill="#0CA4D7" transform="translate(153,136)"/>
<path d="M0 0 C0.33 0 0.66 0 1 0 C1 5.61 1 11.22 1 17 C-1.475 16.01 -1.475 16.01 -4 15 C-4.99 15.495 -4.99 15.495 -6 16 C-5.67 13.36 -5.34 10.72 -5 8 C-4.34 9.32 -3.68 10.64 -3 12 C-0.60926555 8.17482487 -0.44033448 4.40334476 0 0 Z " fill="#0EE1C5" transform="translate(162,112)"/>
<path d="M0 0 C1.65 0 3.3 0 5 0 C5 4.29 5 8.58 5 13 C4.67 12.34 4.34 11.68 4 11 C3.34 11 2.68 11 2 11 C2 8.03 2 5.06 2 2 C1.34 2 0.68 2 0 2 C0 1.34 0 0.68 0 0 Z " fill="#E2F5F5" transform="translate(159,133)"/>
<path d="M0 0 C0.33 1.32 0.66 2.64 1 4 C1.99 3.34 2.98 2.68 4 2 C4 1.34 4 0.68 4 0 C5.98 0 7.96 0 10 0 C10 1.65 10 3.3 10 5 C6.30581799 6.231394 3.7943739 5.64432764 0 5 C0 3.35 0 1.7 0 0 Z " fill="#189FCF" transform="translate(107,128)"/>
<path d="M0 0 C2.31 0.33 4.62 0.66 7 1 C7 1.33 7 1.66 7 2 C5.35 2 3.7 2 2 2 C2 8.27 2 14.54 2 21 C1.67 21 1.34 21 1 21 C1 16.71 1 12.42 1 8 C0.34 7.67 -0.32 7.34 -1 7 C-0.67 4.69 -0.34 2.38 0 0 Z " fill="#E9F5FB" transform="translate(121,112)"/>
<path d="M0 0 C0.99 0.66 1.98 1.32 3 2 C3.40843923 4.71203652 3.13336867 7.2437142 3 10 C2.01 10 1.02 10 0 10 C-0.33 8.35 -0.66 6.7 -1 5 C-1.66 5 -2.32 5 -3 5 C-3 4.01 -3 3.02 -3 2 C-2.01 1.34 -1.02 0.68 0 0 Z " fill="#186EE8" transform="translate(122,142)"/>
<path d="M0 0 C0.33 0 0.66 0 1 0 C1.33 1.65 1.66 3.3 2 5 C2.66 3.68 3.32 2.36 4 1 C4.33 5.29 4.66 9.58 5 14 C1 12 1 12 0 9 C-0.06740865 7.43881572 -0.08514456 5.8749748 -0.0625 4.3125 C-0.05347656 3.50425781 -0.04445313 2.69601563 -0.03515625 1.86328125 C-0.02355469 1.24839844 -0.01195313 0.63351563 0 0 Z " fill="#0EC8C7" transform="translate(108,111)"/>
<path d="M0 0 C1.98 0 3.96 0 6 0 C4.8141763 3.37503669 3.72426311 5.64722731 1 8 C0.01 6.68 -0.98 5.36 -2 4 C-1.34 2.68 -0.68 1.36 0 0 Z " fill="#313131" transform="translate(256,170)"/>
<path d="M0 0 C0.33 0.66 0.66 1.32 1 2 C3.97 2 6.94 2 10 2 C10 2.33 10 2.66 10 3 C7.69 3 5.38 3 3 3 C2.896875 3.7425 2.79375 4.485 2.6875 5.25 C1.95226184 8.19095263 0.86422205 9.66097609 -1 12 C-1.02687279 10.18757948 -1.04633715 8.37504767 -1.0625 6.5625 C-1.07410156 5.55316406 -1.08570313 4.54382813 -1.09765625 3.50390625 C-1 1 -1 1 0 0 Z " fill="#0BCBC1" transform="translate(182,132)"/>
<path d="M0 0 C4.455 0.99 4.455 0.99 9 2 C9 2.33 9 2.66 9 3 C7.02 3 5.04 3 3 3 C3.33 4.32 3.66 5.64 4 7 C2.68 7 1.36 7 0 7 C-0.66 5.68 -1.32 4.36 -2 3 C-1.34 2.01 -0.68 1.02 0 0 Z " fill="#D7D7D7" transform="translate(228,168)"/>
<path d="M0 0 C0.99 0 1.98 0 3 0 C3.33 1.32 3.66 2.64 4 4 C4.66 4 5.32 4 6 4 C6 2.68 6 1.36 6 0 C6.66 0 7.32 0 8 0 C8 1.65 8 3.3 8 5 C5.36 5 2.72 5 0 5 C0 3.35 0 1.7 0 0 Z " fill="#13D5C4" transform="translate(173,128)"/>
<path d="M0 0 C0 0.66 0 1.32 0 2 C-1.98 2 -3.96 2 -6 2 C-6.33 3.98 -6.66 5.96 -7 8 C-7.99 7.67 -8.98 7.34 -10 7 C-10.042721 5.33388095 -10.04063832 3.66617115 -10 2 C-7.75858472 -0.24141528 -3.06492894 0 0 0 Z " fill="#0EABBB" transform="translate(175,133)"/>
<path d="M0 0 C0.66 0 1.32 0 2 0 C2 3.3 2 6.6 2 10 C1.01 10 0.02 10 -1 10 C-1.125 2.25 -1.125 2.25 0 0 Z " fill="#16CDC7" transform="translate(132,118)"/>
<path d="M0 0 C1.65 0 3.3 0 5 0 C4.67 2.31 4.34 4.62 4 7 C3.01 7.33 2.02 7.66 1 8 C0.67 5.36 0.34 2.72 0 0 Z " fill="#E1F1F7" transform="translate(126,133)"/>
<path d="M0 0 C1.98 0 3.96 0 6 0 C5.01 1.98 4.02 3.96 3 6 C2.34 6 1.68 6 1 6 C-0.0625 4.125 -0.0625 4.125 -1 2 C-0.67 1.34 -0.34 0.68 0 0 Z " fill="#E8E8E8" transform="translate(244,180)"/>
<path d="M0 0 C2.64 0 5.28 0 8 0 C8 0.99 8 1.98 8 3 C5.36 3 2.72 3 0 3 C0 2.01 0 1.02 0 0 Z " fill="#144EF7" transform="translate(116,154)"/>
<path d="M0 0 C0.66 0 1.32 0 2 0 C2.25 7.625 2.25 7.625 0 11 C-0.33 10.67 -0.66 10.34 -1 10 C-0.91036938 8.30858344 -0.75422324 6.62040398 -0.5625 4.9375 C-0.46066406 4.01839844 -0.35882813 3.09929687 -0.25390625 2.15234375 C-0.17011719 1.44207031 -0.08632812 0.73179688 0 0 Z " fill="#05D1CB" transform="translate(148,120)"/>
<path d="M0 0 C0.33 0 0.66 0 1 0 C1 3.3 1 6.6 1 10 C0.01 10 -0.98 10 -2 10 C-1.125 2.25 -1.125 2.25 0 0 Z " fill="#08C8CB" transform="translate(129,118)"/>
<path d="M0 0 C0.66 0 1.32 0 2 0 C2 1.65 2 3.3 2 5 C0.125 6.0625 0.125 6.0625 -2 7 C-2.66 6.67 -3.32 6.34 -4 6 C-2.7260411 3.96166576 -1.38938077 1.96147874 0 0 Z " fill="#E8E8E8" transform="translate(253,185)"/>
<path d="M0 0 C3.3 0.33 6.6 0.66 10 1 C10 1.66 10 2.32 10 3 C6.7 3 3.4 3 0 3 C0 2.01 0 1.02 0 0 Z " fill="#097082" transform="translate(148,133)"/>
<path d="M0 0 C1.98 0 3.96 0 6 0 C6 1.32 6 2.64 6 4 C4.02 4.99 4.02 4.99 2 6 C1.34 4.02 0.68 2.04 0 0 Z " fill="#10E8B8" transform="translate(111,105)"/>
<path d="M0 0 C2.475 0.495 2.475 0.495 5 1 C4.67 2.65 4.34 4.3 4 6 C2.68 5.67 1.36 5.34 0 5 C0 3.35 0 1.7 0 0 Z " fill="#06F1BB" transform="translate(107,105)"/>
<path d="M0 0 C0.66 0.99 1.32 1.98 2 3 C0.515 5.475 0.515 5.475 -1 8 C-1.99 7.34 -2.98 6.68 -4 6 C-4 5.01 -4 4.02 -4 3 C-3.01 2.67 -2.02 2.34 -1 2 C-0.67 1.34 -0.34 0.68 0 0 Z " fill="#1E1E1E" transform="translate(45,192)"/>
<path d="M0 0 C0.66 0.33 1.32 0.66 2 1 C-0.57784846 3.64752004 -2.91648098 5.94432065 -6 8 C-4.73058503 4.08597051 -3.48832306 2.20927127 0 0 Z " fill="#E9E9E9" transform="translate(51,176)"/>
<path d="M0 0 C0.33 1.32 0.66 2.64 1 4 C1.66 4 2.32 4 3 4 C3 4.99 3 5.98 3 7 C2.34 7 1.68 7 1 7 C1 7.99 1 8.98 1 10 C2.98 10.495 2.98 10.495 5 11 C3.35 11 1.7 11 0 11 C0 7.37 0 3.74 0 0 Z " fill="#FCF8EB" transform="translate(127,141)"/>
<path d="M0 0 C1.65 0 3.3 0 5 0 C5.33 1.98 5.66 3.96 6 6 C5.01 5.67 4.02 5.34 3 5 C2.67 4.34 2.34 3.68 2 3 C1.01 3.495 1.01 3.495 0 4 C0 2.68 0 1.36 0 0 Z " fill="#0F90E2" transform="translate(135,140)"/>
<path d="M0 0 C2.475 0.99 2.475 0.99 5 2 C4.67 2.99 4.34 3.98 4 5 C4.33 5.66 4.66 6.32 5 7 C3.68 7 2.36 7 1 7 C0.67 4.69 0.34 2.38 0 0 Z " fill="#E7E7E7" transform="translate(139,199)"/>
<path d="M0 0 C0.99 0.33 1.98 0.66 3 1 C2.34 2.98 1.68 4.96 1 7 C0.01 7 -0.98 7 -2 7 C-1.42415568 4.61435923 -0.77772405 2.33317216 0 0 Z " fill="#E7E7E7" transform="translate(83,173)"/>
<path d="M0 0 C0.66 0.33 1.32 0.66 2 1 C2.625 3.5625 2.625 3.5625 3 6 C1.68 6.33 0.36 6.66 -1 7 C-0.67 4.69 -0.34 2.38 0 0 Z " fill="#0DA7DF" transform="translate(109,125)"/>
<path d="M0 0 C1.32 0.66 2.64 1.32 4 2 C3.67 2.99 3.34 3.98 3 5 C1.02 4.34 -0.96 3.68 -3 3 C-2.01 2.01 -1.02 1.02 0 0 Z " fill="#2B2B2B" transform="translate(64,195)"/>
<path d="M0 0 C0.99 0.33 1.98 0.66 3 1 C2.01 2.32 1.02 3.64 0 5 C-1.32 4.34 -2.64 3.68 -4 3 C-2.1875 1.4375 -2.1875 1.4375 0 0 Z " fill="#2A2A2A" transform="translate(66,174)"/>
<path d="M0 0 C0.66 0 1.32 0 2 0 C2 1.65 2 3.3 2 5 C-0.97 4.505 -0.97 4.505 -4 4 C-4 3.34 -4 2.68 -4 2 C-2.68 2 -1.36 2 0 2 C0 1.34 0 0.68 0 0 Z " fill="#06B6D8" transform="translate(131,128)"/>
</svg>
